<svg width="293" height="222" viewBox="0 0 293 222" fill="none" xmlns="http://www.w3.org/2000/svg">
<path d="M51.42 218.68C50.8 218.46 50.29 218.21 49.89 217.93C49.51 217.65 49.19 217.19 48.93 216.55C48.61 215.65 48.45 214.59 48.45 213.37C48.45 212.19 48.52 211.19 48.66 210.37C48.8 209.53 49.04 208.68 49.38 207.82L49.65 207.19C49.97 206.37 50.2 205.83 50.34 205.57C50.68 204.79 51.28 203.78 52.14 202.54C52.9 201.38 53.5 200.54 53.94 200.02C54.38 199.48 54.8 199.05 55.2 198.73C55.62 198.41 56.38 197.87 57.48 197.11C57.94 196.77 58.47 196.6 59.07 196.6C59.57 196.6 60.03 196.73 60.45 196.99C60.89 197.23 61.22 197.58 61.44 198.04C61.66 198.42 61.77 198.93 61.77 199.57C61.77 200.47 61.57 201.41 61.17 202.39C60.77 203.37 60.26 204.14 59.64 204.7C59.44 204.88 59.25 204.97 59.07 204.97C58.85 204.97 58.56 204.81 58.2 204.49C58.02 204.15 57.92 203.95 57.9 203.89C57.88 203.83 57.92 203.79 58.02 203.77C58.2 203.55 58.46 203.13 58.8 202.51C59.16 201.87 59.4 201.37 59.52 201.01C59.56 200.89 59.6 200.69 59.64 200.41C59.8 199.71 59.88 199.24 59.88 199C59.88 198.76 59.81 198.57 59.67 198.43C59.61 198.37 59.53 198.34 59.43 198.34C59.27 198.34 58.99 198.44 58.59 198.64C58.11 198.84 57.5 199.29 56.76 199.99C56.02 200.69 55.35 201.45 54.75 202.27C53.83 203.47 53.12 204.46 52.62 205.24C52.14 206.02 51.77 206.81 51.51 207.61L51.18 208.39C51.2 208.47 51.17 208.67 51.09 208.99C51.01 209.31 50.92 209.57 50.82 209.77C50.54 210.93 50.4 212.08 50.4 213.22C50.4 214.08 50.47 214.84 50.61 215.5C50.77 216.16 50.99 216.61 51.27 216.85C51.43 216.99 51.67 217.06 51.99 217.06C52.39 217.06 52.88 216.96 53.46 216.76C54.06 216.56 54.79 216.27 55.65 215.89C56.11 215.71 56.54 215.5 56.94 215.26C57.36 215.02 57.67 214.8 57.87 214.6C58.39 214.22 58.81 214.03 59.13 214.03C59.35 213.95 59.5 213.91 59.58 213.91C59.62 213.91 59.64 213.94 59.64 214C59.66 214.04 59.67 214.1 59.67 214.18C59.67 214.46 59.52 214.77 59.22 215.11C58.92 215.43 58.52 215.74 58.02 216.04C57.62 216.44 57.14 216.75 56.58 216.97C55.94 217.43 55.19 217.84 54.33 218.2C53.49 218.56 52.72 218.74 52.02 218.74C51.86 218.74 51.66 218.72 51.42 218.68ZM67.1074 217.6C66.4074 217.06 65.9474 216.64 65.7274 216.34C65.5074 216.02 65.3774 215.63 65.3374 215.17C65.3174 215.07 65.3074 214.89 65.3074 214.63C65.3074 214.07 65.3574 213.37 65.4574 212.53C65.5574 211.69 65.6574 211.02 65.7574 210.52C65.8374 210.44 65.8774 210.32 65.8774 210.16C65.8974 210 65.8974 209.9 65.8774 209.86C65.8774 209.8 65.9274 209.6 66.0274 209.26C66.2674 208.52 66.4374 207.9 66.5374 207.4C67.0774 205.76 67.6074 204.45 68.1274 203.47C68.6474 202.49 69.2274 201.57 69.8674 200.71C70.7274 199.83 71.3974 199.19 71.8774 198.79C72.3774 198.37 72.9274 198.02 73.5274 197.74C74.3074 197.28 74.8674 197.05 75.2074 197.05C75.2674 197.05 75.3574 197.07 75.4774 197.11C76.5974 197.35 77.4374 197.81 77.9974 198.49C78.5574 199.15 78.9674 200.18 79.2274 201.58C79.4074 202.8 79.4974 203.72 79.4974 204.34C79.4974 205.34 79.3174 206.35 78.9574 207.37C78.5974 208.39 77.9474 209.67 77.0074 211.21C75.9274 213.33 74.6474 215.03 73.1674 216.31C71.7074 217.59 70.3274 218.23 69.0274 218.23C68.3274 218.23 67.6874 218.02 67.1074 217.6ZM69.0274 216.73C69.7074 216.65 70.3474 216.39 70.9474 215.95C71.5674 215.49 72.3274 214.74 73.2274 213.7C74.0074 212.8 74.5574 212.12 74.8774 211.66C75.2174 211.2 75.5174 210.65 75.7774 210.01C76.0374 209.37 76.3574 208.39 76.7374 207.07C76.9574 206.23 77.0974 205.58 77.1574 205.12C77.2374 204.64 77.2774 204.07 77.2774 203.41L77.2474 201.46C77.2274 201.12 77.1574 200.77 77.0374 200.41C76.9174 200.03 76.7774 199.75 76.6174 199.57C76.3174 199.23 75.9274 199.06 75.4474 199.06C75.1474 199.06 74.8574 199.13 74.5774 199.27C74.1974 199.43 73.6374 199.9 72.8974 200.68C72.1574 201.44 71.4874 202.23 70.8874 203.05C70.3074 203.85 70.0174 204.37 70.0174 204.61C70.0174 204.63 70.0074 204.69 69.9874 204.79C69.9674 204.89 69.9274 204.98 69.8674 205.06C69.5274 205.42 69.1474 206.15 68.7274 207.25C68.3074 208.35 67.9374 209.54 67.6174 210.82C67.2974 212.1 67.1174 213.17 67.0774 214.03L67.0174 215.05C67.0174 215.23 67.0274 215.37 67.0474 215.47C67.0874 215.57 67.1574 215.69 67.2574 215.83C67.3574 215.95 67.4474 216.08 67.5274 216.22C67.6274 216.38 67.7874 216.51 68.0074 216.61C68.2274 216.71 68.4574 216.76 68.6974 216.76C68.8374 216.76 68.9474 216.75 69.0274 216.73ZM84.1802 216.94L84.4202 215.53C84.6002 214.23 84.8002 213.05 85.0202 211.99C85.2602 210.93 85.4202 210.4 85.5002 210.4C85.5802 210.36 85.6202 210.25 85.6202 210.07C85.6402 209.87 85.6502 209.73 85.6502 209.65L85.7102 208.9L85.2602 208.96C85.0202 208.92 84.8802 208.87 84.8402 208.81C84.8002 208.75 84.7802 208.57 84.7802 208.27C84.8002 208.05 84.8302 207.9 84.8702 207.82C84.9302 207.74 85.0402 207.69 85.2002 207.67C85.5402 207.55 85.8802 207.36 86.2202 207.1C86.5602 206.82 86.7202 206.59 86.7002 206.41C86.7202 206.11 86.8802 205.49 87.1802 204.55C87.4802 203.61 87.8102 202.8 88.1702 202.12C88.3902 201.38 88.5002 200.91 88.5002 200.71C88.6602 200.13 88.7402 199.81 88.7402 199.75C88.8202 199.55 88.8602 199.45 88.8602 199.45C88.8602 199.37 88.8002 199.33 88.6802 199.33C88.6202 199.33 88.4702 199.35 88.2302 199.39C88.1902 199.41 88.0802 199.43 87.9002 199.45C87.7202 199.47 87.5402 199.47 87.3602 199.45C87.1202 199.51 86.9302 199.54 86.7902 199.54C86.6902 199.54 86.6102 199.52 86.5502 199.48C86.4902 199.44 86.4402 199.37 86.4002 199.27C86.2402 199.11 86.1602 198.94 86.1602 198.76C86.1602 198.66 86.1902 198.58 86.2502 198.52C86.3102 198.44 86.3902 198.41 86.4902 198.43H86.5502C86.6702 198.43 86.8102 198.35 86.9702 198.19C87.0502 198.11 87.2502 198.02 87.5702 197.92C87.8902 197.8 88.2502 197.73 88.6502 197.71C88.9302 197.69 89.3002 197.61 89.7602 197.47C90.2402 197.31 90.5202 197.19 90.6002 197.11C90.6002 197.01 90.6702 196.96 90.8102 196.96C90.9502 196.96 91.0302 196.96 91.0502 196.96C91.1702 196.94 91.3302 196.92 91.5302 196.9C91.7502 196.86 91.8902 196.85 91.9502 196.87C92.3702 196.69 93.5402 196.61 95.4602 196.63L96.2102 196.69C96.4702 196.69 96.6002 196.65 96.6002 196.57C96.6602 196.57 96.8102 196.59 97.0502 196.63C97.3102 196.67 97.5802 196.73 97.8602 196.81C98.5602 196.85 99.0502 196.99 99.3302 197.23C99.6302 197.45 99.7902 197.84 99.8102 198.4L99.9302 199.09L99.1202 198.82C98.6602 198.76 98.0102 198.69 97.1702 198.61C96.3502 198.51 95.6902 198.46 95.1902 198.46C94.9702 198.46 94.8202 198.47 94.7402 198.49C94.5802 198.49 94.3702 198.51 94.1102 198.55C93.8502 198.57 93.6302 198.57 93.4502 198.55C93.1502 198.63 92.8402 198.67 92.5202 198.67L92.1602 198.64C92.0402 198.68 91.8702 198.72 91.6502 198.76C91.4502 198.8 91.3102 198.85 91.2302 198.91C91.1902 198.93 91.1202 198.97 91.0202 199.03C90.9202 199.07 90.8402 199.09 90.7802 199.09H90.7502C90.7102 199.09 90.6802 199.17 90.6602 199.33C90.6402 199.47 90.6202 199.63 90.6002 199.81C90.6202 200.21 90.5902 200.56 90.5102 200.86C90.4302 201.14 90.1802 201.82 89.7602 202.9L89.4902 203.65C89.2502 204.23 89.1002 204.67 89.0402 204.97C88.8202 205.57 88.6102 206.03 88.4102 206.35C88.4302 206.55 88.4702 206.65 88.5302 206.65C88.5902 206.65 88.6702 206.6 88.7702 206.5C88.8102 206.52 88.8802 206.53 88.9802 206.53C89.1002 206.53 89.2602 206.48 89.4602 206.38C89.6602 206.38 89.8602 206.4 90.0602 206.44V206.41C90.0602 206.35 90.1602 206.32 90.3602 206.32C90.5802 206.3 90.7602 206.28 90.9002 206.26C91.0402 206.18 91.3302 206.1 91.7702 206.02C92.0902 205.94 92.3102 205.88 92.4302 205.84C92.6702 205.74 92.8202 205.69 92.8802 205.69C92.9602 205.69 93.1402 205.75 93.4202 205.87C93.6602 206.19 93.7802 206.58 93.7802 207.04C93.7802 207.34 93.7202 207.54 93.6002 207.64L92.6702 207.97C92.6102 207.95 92.5102 207.94 92.3702 207.94C92.0702 207.94 91.8202 207.99 91.6202 208.09C91.2802 208.29 90.8402 208.39 90.3002 208.39C89.9802 208.39 89.7302 208.38 89.5502 208.36C89.4502 208.44 89.2802 208.5 89.0402 208.54C88.8202 208.56 88.6802 208.59 88.6202 208.63C88.5602 208.63 88.4402 208.65 88.2602 208.69C88.0802 208.71 87.9602 208.71 87.9002 208.69C87.7802 208.69 87.7202 208.84 87.7202 209.14C87.7202 209.2 87.6902 209.27 87.6302 209.35C87.5902 209.43 87.5602 209.48 87.5402 209.5C87.4602 209.56 87.4002 209.62 87.3602 209.68C87.3402 209.74 87.3302 209.81 87.3302 209.89C87.3302 209.95 87.3202 210.1 87.3002 210.34C87.2802 210.58 87.2302 210.81 87.1502 211.03C86.8902 211.87 86.6702 212.67 86.4902 213.43C86.3302 214.19 86.2902 214.62 86.3702 214.72C86.5702 214.92 86.7402 215.03 86.8802 215.05C86.9002 215.03 86.9302 215.02 86.9702 215.02C87.0502 215.02 87.1202 215.09 87.1802 215.23C87.2402 215.35 87.2902 215.5 87.3302 215.68C87.3102 215.82 87.0302 216.23 86.4902 216.91C86.1902 217.61 85.8702 217.96 85.5302 217.96C85.2902 217.96 84.9902 217.8 84.6302 217.48L84.1802 216.94ZM100.105 217.03C99.9048 216.85 99.7448 216.68 99.6248 216.52C99.5248 216.36 99.4748 216.17 99.4748 215.95C99.4748 215.79 99.4948 215.67 99.5348 215.59C99.7948 215.37 99.9248 215.1 99.9248 214.78C99.9848 214.5 100.035 214.3 100.075 214.18C100.115 214.06 100.165 213.96 100.225 213.88C100.285 213.68 100.385 213.35 100.525 212.89C100.665 212.41 100.765 212.04 100.825 211.78C100.845 211.62 100.885 211.43 100.945 211.21C101.005 210.99 101.045 210.84 101.065 210.76C101.185 210.64 101.375 210.25 101.635 209.59C101.655 209.15 101.785 208.84 102.025 208.66C102.145 208.46 102.205 208.21 102.205 207.91C102.025 207.91 102.315 207.03 103.075 205.27C103.235 204.97 103.375 204.67 103.495 204.37C103.615 204.07 103.685 203.88 103.705 203.8C103.705 203.74 103.735 203.65 103.795 203.53C103.875 203.41 103.935 203.29 103.975 203.17C103.975 203.11 104.045 202.93 104.185 202.63C104.325 202.33 104.455 202.02 104.575 201.7C104.755 201.02 104.955 200.5 105.175 200.14C105.215 199.94 105.345 199.64 105.565 199.24C105.685 199.06 105.775 198.88 105.835 198.7C105.915 198.46 106.045 198.28 106.225 198.16C106.425 198.04 106.645 197.98 106.885 197.98C107.085 197.98 107.285 198.03 107.485 198.13C107.665 198.35 107.835 198.46 107.995 198.46C108.155 198.46 108.435 198.35 108.835 198.13C109.095 198.13 109.475 198.1 109.975 198.04C110.495 197.98 110.955 197.91 111.355 197.83C111.675 197.83 112.005 197.81 112.345 197.77C112.705 197.71 112.925 197.68 113.005 197.68C113.045 197.64 113.165 197.62 113.365 197.62C113.625 197.62 113.905 197.66 114.205 197.74C114.525 197.8 114.745 197.89 114.865 198.01C114.925 198.15 114.965 198.31 114.985 198.49C115.025 198.67 115.045 198.85 115.045 199.03C115.045 199.21 115.015 199.3 114.955 199.3H113.395C112.855 199.3 112.055 199.4 110.995 199.6C110.815 199.6 110.645 199.61 110.485 199.63C110.345 199.65 110.225 199.67 110.125 199.69C109.725 199.77 109.435 199.81 109.255 199.81C108.675 199.89 108.255 199.97 107.995 200.05C107.755 200.11 107.565 200.2 107.425 200.32C107.305 200.44 107.185 200.65 107.065 200.95C107.005 201.11 106.805 201.57 106.465 202.33C106.145 203.09 105.885 203.79 105.685 204.43L105.325 205.72H105.805C106.545 205.68 107.475 205.59 108.595 205.45C109.075 205.35 109.515 205.29 109.915 205.27C110.375 205.21 110.765 205.18 111.085 205.18C112.065 205.18 112.555 205.5 112.555 206.14C112.555 206.28 112.465 206.41 112.285 206.53C112.105 206.65 111.685 206.76 111.025 206.86L108.325 207.07C106.365 207.23 105.265 207.31 105.025 207.31C104.925 207.29 104.805 207.28 104.665 207.28C104.545 207.28 104.465 207.3 104.425 207.34C104.405 207.38 104.385 207.45 104.365 207.55C104.365 207.61 104.335 207.74 104.275 207.94C104.215 208.14 104.175 208.3 104.155 208.42C103.955 208.68 103.785 209.13 103.645 209.77C103.605 209.89 103.565 210 103.525 210.1C103.485 210.18 103.455 210.26 103.435 210.34C103.335 210.54 103.265 210.74 103.225 210.94C103.165 211.02 102.905 211.76 102.445 213.16L101.905 214.78C101.605 215.8 101.385 216.45 101.245 216.73C101.125 217.01 100.945 217.15 100.705 217.15C100.545 217.15 100.345 217.11 100.105 217.03ZM122.111 218.14C121.171 218.14 120.401 218.08 119.801 217.96C119.221 217.86 118.701 217.63 118.241 217.27C117.861 216.99 117.581 216.67 117.401 216.31C117.241 215.95 117.161 215.5 117.161 214.96C117.161 214.26 117.311 213.34 117.611 212.2C117.711 211.68 117.821 211.24 117.941 210.88C118.081 210.5 118.201 210.31 118.301 210.31L118.511 209.2C118.531 209.08 118.571 208.92 118.631 208.72C118.691 208.5 118.741 208.34 118.781 208.24C118.821 208.14 118.881 208.05 118.961 207.97C119.041 207.91 119.161 207.64 119.321 207.16C119.321 207.12 119.331 207.03 119.351 206.89C119.371 206.75 119.421 206.59 119.501 206.41C119.801 205.91 119.951 205.58 119.951 205.42C119.971 205.36 120.051 205.24 120.191 205.06C120.331 204.88 120.441 204.67 120.521 204.43C121.801 202.17 122.521 200.68 122.681 199.96C122.881 199.48 123.091 199.12 123.311 198.88C123.251 198.76 123.401 198.61 123.761 198.43C124.141 198.25 124.621 198.08 125.201 197.92C125.781 197.76 126.331 197.66 126.851 197.62C126.971 197.54 127.241 197.48 127.661 197.44C128.081 197.4 128.551 197.38 129.071 197.38C129.431 197.38 129.931 197.4 130.571 197.44C130.891 197.44 131.161 197.48 131.381 197.56C131.621 197.62 131.831 197.7 132.011 197.8C132.191 197.88 132.321 197.94 132.401 197.98C132.521 198.1 132.611 198.27 132.671 198.49C132.731 198.69 132.761 198.82 132.761 198.88C132.761 198.98 132.531 199.04 132.071 199.06C131.631 199.08 130.971 199.09 130.091 199.09C129.351 199.09 128.461 199.18 127.421 199.36C127.041 199.42 126.771 199.45 126.611 199.45C126.371 199.53 126.151 199.58 125.951 199.6C125.751 199.62 125.621 199.63 125.561 199.63C125.481 199.63 125.131 200.15 124.511 201.19C123.891 202.21 123.571 202.79 123.551 202.93C123.551 203.11 123.491 203.3 123.371 203.5C123.251 203.7 123.041 204.01 122.741 204.43C122.481 204.79 122.351 205.07 122.351 205.27C122.351 205.43 122.411 205.53 122.531 205.57C123.151 205.47 123.901 205.38 124.781 205.3C125.681 205.2 126.341 205.15 126.761 205.15C126.961 205.09 127.141 205.06 127.301 205.06C127.581 205.06 127.841 205.13 128.081 205.27C128.301 205.31 128.461 205.38 128.561 205.48C128.681 205.56 128.741 205.65 128.741 205.75C128.741 205.89 128.661 205.99 128.501 206.05C128.321 206.23 127.711 206.46 126.671 206.74C125.631 207.02 124.541 207.28 123.401 207.52C122.281 207.74 121.651 207.83 121.511 207.79C121.451 207.63 121.401 207.57 121.361 207.61C121.341 207.63 121.261 207.84 121.121 208.24C120.981 208.62 120.801 209.06 120.581 209.56C120.241 210.32 119.971 211.03 119.771 211.69C119.571 212.33 119.391 213.12 119.231 214.06C119.111 214.54 119.051 214.85 119.051 214.99C119.051 215.27 119.131 215.52 119.291 215.74C119.471 215.94 119.771 216.13 120.191 216.31C120.531 216.37 120.931 216.4 121.391 216.4C122.251 216.4 123.151 216.28 124.091 216.04C124.411 215.86 124.731 215.69 125.051 215.53C125.391 215.37 125.621 215.26 125.741 215.2C125.881 215.18 126.031 215.15 126.191 215.11C126.371 215.07 126.521 215.05 126.641 215.05C126.801 214.83 127.001 214.72 127.241 214.72C127.301 214.72 127.471 214.88 127.751 215.2C128.031 215.52 128.161 215.72 128.141 215.8C128.141 216 127.961 216.19 127.601 216.37C127.261 216.53 126.501 216.84 125.321 217.3C124.481 217.66 123.891 217.89 123.551 217.99C123.211 218.09 122.731 218.14 122.111 218.14ZM139.086 217.81C138.466 217.67 137.846 217.42 137.226 217.06C136.626 216.72 136.286 216.41 136.206 216.13C136.206 216.03 136.166 215.95 136.086 215.89C136.006 215.81 135.916 215.77 135.816 215.77V215.53V215.32C135.816 215.18 135.776 215.09 135.696 215.05C135.576 214.81 135.516 214.46 135.516 214C135.516 213.4 135.596 212.69 135.756 211.87C135.936 211.03 136.146 210.27 136.386 209.59C136.386 209.45 136.416 209.27 136.476 209.05C136.556 208.83 136.596 208.69 136.596 208.63C136.756 208.17 137.076 207.44 137.556 206.44C138.036 205.44 138.436 204.74 138.756 204.34C138.756 204.28 138.826 204.15 138.966 203.95C139.126 203.73 139.236 203.51 139.296 203.29C139.616 202.97 140.046 202.35 140.586 201.43C141.286 200.85 141.576 200.33 141.456 199.87C141.476 199.55 141.526 199.32 141.606 199.18C141.686 199.02 141.836 198.89 142.056 198.79C142.296 198.67 142.686 198.55 143.226 198.43C143.846 198.19 144.486 198.03 145.146 197.95C145.806 197.85 146.676 197.78 147.756 197.74C148.016 197.68 148.236 197.64 148.416 197.62C148.616 197.6 148.736 197.59 148.776 197.59C148.856 197.51 149.216 197.61 149.856 197.89C150.516 198.15 150.826 198.33 150.786 198.43C150.766 198.61 150.486 198.79 149.946 198.97C149.406 199.15 148.796 199.28 148.116 199.36C146.856 199.5 145.886 199.68 145.206 199.9C144.546 200.12 143.976 200.46 143.496 200.92C143.036 201.36 142.506 202.05 141.906 202.99C141.446 203.71 141.116 204.25 140.916 204.61C140.736 204.97 140.646 205.23 140.646 205.39C140.646 205.49 140.686 205.56 140.766 205.6C140.866 205.64 141.006 205.66 141.186 205.66C141.366 205.66 141.576 205.64 141.816 205.6C142.056 205.54 142.236 205.51 142.356 205.51C142.496 205.47 142.816 205.39 143.316 205.27C143.816 205.15 144.296 205.06 144.756 205L146.016 204.73C146.476 204.63 146.836 204.58 147.096 204.58C147.776 204.58 148.116 204.74 148.116 205.06C148.116 205.22 148.006 205.4 147.786 205.6C147.566 205.8 147.266 205.98 146.886 206.14C146.526 206.28 146.116 206.42 145.656 206.56C145.196 206.7 144.906 206.77 144.786 206.77C144.746 206.79 144.646 206.81 144.486 206.83C144.346 206.85 144.166 206.86 143.946 206.86L142.596 207.04L141.606 207.16C141.406 207.22 141.006 207.33 140.406 207.49C139.806 207.63 139.406 207.8 139.206 208C139.006 208.2 138.826 208.5 138.666 208.9C138.386 209.56 138.136 210.46 137.916 211.6C137.696 212.74 137.586 213.7 137.586 214.48C137.586 215.04 137.656 215.39 137.796 215.53C137.936 215.69 138.166 215.82 138.486 215.92C138.806 216 139.176 216.04 139.596 216.04C140.156 216.04 140.726 215.97 141.306 215.83C141.906 215.69 142.406 215.49 142.806 215.23C143.186 214.93 143.606 214.7 144.066 214.54C144.286 214.38 144.446 214.3 144.546 214.3C144.646 214.3 144.786 214.36 144.966 214.48C145.146 214.6 145.276 214.69 145.356 214.75C145.556 215.05 145.656 215.27 145.656 215.41C145.656 215.65 145.496 215.87 145.176 216.07C144.856 216.27 144.246 216.56 143.346 216.94C142.406 217.26 141.656 217.49 141.096 217.63C140.536 217.77 140.026 217.84 139.566 217.84L139.086 217.81ZM164.617 219.49C164.577 219.47 164.497 219.44 164.377 219.4C164.257 219.36 164.127 219.34 163.987 219.34C163.747 219.28 163.547 219.15 163.387 218.95C163.247 218.75 163.177 218.52 163.177 218.26C163.177 218.12 163.187 218.01 163.207 217.93C163.267 217.87 163.317 217.71 163.357 217.45C163.417 217.21 163.447 216.99 163.447 216.79C163.507 216.67 163.557 216.55 163.597 216.43C163.637 216.29 163.687 216.1 163.747 215.86C163.907 214.98 164.277 213.5 164.857 211.42C165.437 209.34 165.797 208.23 165.937 208.09V207.76C165.937 207.7 165.957 207.58 165.997 207.4C166.037 207.22 166.127 207.03 166.267 206.83C166.347 206.59 166.407 206.36 166.447 206.14C166.507 205.9 166.547 205.72 166.567 205.6C166.647 205.5 166.777 205.2 166.957 204.7C167.157 204.2 167.287 203.87 167.347 203.71C167.487 203.33 167.657 202.89 167.857 202.39C168.077 201.87 168.227 201.53 168.307 201.37V201.22C168.347 201.18 168.447 200.98 168.607 200.62C168.787 200.24 168.937 199.92 169.057 199.66C169.197 199.34 169.567 198.51 170.167 197.17C170.227 197.03 170.317 196.86 170.437 196.66C170.577 196.44 170.647 196.29 170.647 196.21C170.727 196.07 170.867 196 171.067 196C171.247 196 171.427 196.07 171.607 196.21C171.807 196.33 171.957 196.49 172.057 196.69L172.357 197.17L171.277 199.33C170.977 199.85 170.717 200.35 170.497 200.83C170.277 201.31 170.167 201.59 170.167 201.67C170.087 201.87 169.927 202.28 169.687 202.9C169.467 203.52 169.287 204.05 169.147 204.49C169.047 204.79 168.927 205.11 168.787 205.45C168.647 205.77 168.547 206 168.487 206.14C168.327 206.5 168.247 206.7 168.247 206.74C168.247 206.66 169.447 206.62 171.847 206.62C172.227 206.62 172.897 206.61 173.857 206.59C174.837 206.57 175.447 206.54 175.687 206.5L177.247 206.35L178.267 203.26C178.467 202.56 178.907 201.2 179.587 199.18C179.887 198.32 180.127 197.77 180.307 197.53C180.487 197.27 180.707 197.14 180.967 197.14C181.067 197.14 181.207 197.19 181.387 197.29C181.587 197.37 181.717 197.48 181.777 197.62C181.997 197.84 182.107 198.07 182.107 198.31C182.107 198.59 181.947 198.98 181.627 199.48C181.387 199.9 181.047 200.69 180.607 201.85C180.427 202.39 180.317 202.7 180.277 202.78C180.277 203.2 180.177 203.51 179.977 203.71C179.897 203.79 179.757 204.08 179.557 204.58C179.357 205.06 179.257 205.34 179.257 205.42C179.257 205.58 179.227 205.76 179.167 205.96C179.107 206.14 179.037 206.27 178.957 206.35L178.747 207.07C178.047 209.61 177.497 211.37 177.097 212.35C177.097 212.45 177.047 212.63 176.947 212.89C176.847 213.15 176.797 213.33 176.797 213.43C176.757 213.57 176.667 213.85 176.527 214.27C176.387 214.69 176.317 214.94 176.317 215.02C176.277 215.24 176.197 215.59 176.077 216.07C175.777 217.43 175.627 218.17 175.627 218.29C175.587 218.33 175.527 218.35 175.447 218.35C175.367 218.35 175.237 218.32 175.057 218.26C174.897 218.2 174.777 218.15 174.697 218.11C174.217 217.85 173.977 217.55 173.977 217.21C173.977 216.99 174.067 216.7 174.247 216.34C174.307 216.24 174.497 215.59 174.817 214.39L175.087 213.28C175.207 212.96 175.477 212.01 175.897 210.43C176.237 209.21 176.427 208.58 176.467 208.54V208.24C176.407 208.14 175.677 208.09 174.277 208.09C172.697 208.09 171.247 208.17 169.927 208.33H168.517H167.737C167.637 208.55 167.327 209.48 166.807 211.12C166.307 212.74 166.027 213.76 165.967 214.18C165.827 214.84 165.607 215.76 165.307 216.94C165.007 218.1 164.777 218.95 164.617 219.49ZM185.871 217.6C185.171 217.06 184.711 216.64 184.491 216.34C184.271 216.02 184.141 215.63 184.101 215.17C184.081 215.07 184.071 214.89 184.071 214.63C184.071 214.07 184.121 213.37 184.221 212.53C184.321 211.69 184.421 211.02 184.521 210.52C184.601 210.44 184.641 210.32 184.641 210.16C184.661 210 184.661 209.9 184.641 209.86C184.641 209.8 184.691 209.6 184.791 209.26C185.031 208.52 185.201 207.9 185.301 207.4C185.841 205.76 186.371 204.45 186.891 203.47C187.411 202.49 187.991 201.57 188.631 200.71C189.491 199.83 190.161 199.19 190.641 198.79C191.141 198.37 191.691 198.02 192.291 197.74C193.071 197.28 193.631 197.05 193.971 197.05C194.031 197.05 194.121 197.07 194.241 197.11C195.361 197.35 196.201 197.81 196.761 198.49C197.321 199.15 197.731 200.18 197.991 201.58C198.171 202.8 198.261 203.72 198.261 204.34C198.261 205.34 198.081 206.35 197.721 207.37C197.361 208.39 196.711 209.67 195.771 211.21C194.691 213.33 193.411 215.03 191.931 216.31C190.471 217.59 189.091 218.23 187.791 218.23C187.091 218.23 186.451 218.02 185.871 217.6ZM187.791 216.73C188.471 216.65 189.111 216.39 189.711 215.95C190.331 215.49 191.091 214.74 191.991 213.7C192.771 212.8 193.321 212.12 193.641 211.66C193.981 211.2 194.281 210.65 194.541 210.01C194.801 209.37 195.121 208.39 195.501 207.07C195.721 206.23 195.861 205.58 195.921 205.12C196.001 204.64 196.041 204.07 196.041 203.41L196.011 201.46C195.991 201.12 195.921 200.77 195.801 200.41C195.681 200.03 195.541 199.75 195.381 199.57C195.081 199.23 194.691 199.06 194.211 199.06C193.911 199.06 193.621 199.13 193.341 199.27C192.961 199.43 192.401 199.9 191.661 200.68C190.921 201.44 190.251 202.23 189.651 203.05C189.071 203.85 188.781 204.37 188.781 204.61C188.781 204.63 188.771 204.69 188.751 204.79C188.731 204.89 188.691 204.98 188.631 205.06C188.291 205.42 187.911 206.15 187.491 207.25C187.071 208.35 186.701 209.54 186.381 210.82C186.061 212.1 185.881 213.17 185.841 214.03L185.781 215.05C185.781 215.23 185.791 215.37 185.811 215.47C185.851 215.57 185.921 215.69 186.021 215.83C186.121 215.95 186.211 216.08 186.291 216.22C186.391 216.38 186.551 216.51 186.771 216.61C186.991 216.71 187.221 216.76 187.461 216.76C187.601 216.76 187.711 216.75 187.791 216.73ZM205.614 217.84C204.574 217.52 203.804 216.94 203.304 216.1C202.804 215.26 202.554 214.06 202.554 212.5C202.554 211.2 202.694 209.74 202.974 208.12C203.174 206.86 203.554 205.33 204.114 203.53C204.694 201.71 205.284 200.2 205.884 199C206.284 198.22 206.604 197.71 206.844 197.47C207.104 197.21 207.344 197.1 207.564 197.14C207.904 197.22 208.164 197.38 208.344 197.62C208.544 197.84 208.644 198.08 208.644 198.34C208.644 198.74 208.454 199.07 208.074 199.33C207.854 199.59 207.454 200.34 206.874 201.58C206.754 201.86 206.554 202.28 206.274 202.84C205.814 204.4 205.464 205.67 205.224 206.65C205.004 207.61 204.834 208.61 204.714 209.65C204.414 211.47 204.264 212.88 204.264 213.88V214.81C204.344 214.93 204.434 215.08 204.534 215.26C204.634 215.44 204.724 215.58 204.804 215.68C204.884 215.76 204.974 215.81 205.074 215.83C205.254 215.91 205.484 215.95 205.764 215.95C206.324 215.95 206.904 215.76 207.504 215.38C207.584 215.22 207.694 215.09 207.834 214.99C207.974 214.89 208.064 214.83 208.104 214.81C208.144 214.87 208.174 214.9 208.194 214.9C208.254 214.9 208.304 214.83 208.344 214.69V214.66C208.344 214.56 208.434 214.42 208.614 214.24C208.814 214.14 209.124 213.82 209.544 213.28C209.984 212.72 210.384 212.15 210.744 211.57C211.124 210.97 211.314 210.61 211.314 210.49C211.314 210.39 211.374 210.27 211.494 210.13C211.614 209.99 211.684 209.91 211.704 209.89C211.904 209.69 212.554 208.44 213.654 206.14C213.934 205.16 214.294 203.78 214.734 202C215.194 200.2 215.474 199.04 215.574 198.52C215.614 198.26 215.664 198.03 215.724 197.83C215.804 197.63 215.854 197.51 215.874 197.47C216.034 197.41 216.254 197.46 216.534 197.62C216.834 197.78 217.014 197.87 217.074 197.89C217.194 198.03 217.254 198.23 217.254 198.49C217.254 198.77 217.164 199.36 216.984 200.26C216.904 200.64 216.814 201.12 216.714 201.7C216.454 202.96 216.134 204.12 215.754 205.18C215.374 206.24 214.824 207.66 214.104 209.44V209.62C214.004 209.92 213.914 210.11 213.834 210.19C213.754 210.25 213.664 210.28 213.564 210.28C213.484 210.52 213.394 210.69 213.294 210.79C213.194 210.89 213.124 210.97 213.084 211.03C213.044 211.21 212.994 211.37 212.934 211.51C212.894 211.63 212.864 211.71 212.844 211.75C212.844 211.87 212.794 211.97 212.694 212.05C212.594 212.11 212.454 212.18 212.274 212.26C212.214 212.26 212.164 212.35 212.124 212.53C212.084 212.69 212.044 212.79 212.004 212.83C211.304 213.93 210.524 214.93 209.664 215.83C208.824 216.71 208.024 217.3 207.264 217.6C206.804 217.8 206.424 217.9 206.124 217.9C206.024 217.9 205.854 217.88 205.614 217.84ZM219.914 218.53C219.734 218.45 219.524 218.29 219.284 218.05C218.844 217.77 218.514 217.45 218.294 217.09C218.074 216.73 217.954 216.24 217.934 215.62C217.934 215.46 218.064 215.24 218.324 214.96C218.604 214.66 218.904 214.51 219.224 214.51C219.404 214.51 219.584 214.57 219.764 214.69C219.584 215.27 219.494 215.66 219.494 215.86C219.494 216.12 219.584 216.33 219.764 216.49C219.964 216.63 220.304 216.75 220.784 216.85C221.064 216.91 221.324 216.94 221.564 216.94C221.884 216.94 222.324 216.89 222.884 216.79C223.444 216.75 223.874 216.71 224.174 216.67C224.474 216.61 224.694 216.52 224.834 216.4C225.414 216.16 225.934 215.88 226.394 215.56C226.854 215.22 227.164 214.88 227.324 214.54C227.524 214.28 227.644 214.07 227.684 213.91C227.724 213.75 227.744 213.56 227.744 213.34C227.744 213.12 227.744 212.96 227.744 212.86C227.724 212.22 227.674 211.78 227.594 211.54C227.514 211.28 227.254 210.69 226.814 209.77C226.814 209.65 226.624 209.38 226.244 208.96C225.864 208.52 225.614 208.23 225.494 208.09C225.234 207.55 225.014 207.13 224.834 206.83C224.674 206.53 224.474 206.3 224.234 206.14C224.174 206.06 224.094 205.89 223.994 205.63C223.894 205.37 223.824 205.23 223.784 205.21C223.764 205.19 223.734 205.14 223.694 205.06C223.654 204.96 223.604 204.84 223.544 204.7C223.384 204.34 223.304 203.96 223.304 203.56C223.304 203 223.424 202.42 223.664 201.82C223.924 201.2 224.294 200.62 224.774 200.08C224.994 199.7 225.394 199.24 225.974 198.7C226.574 198.14 226.934 197.86 227.054 197.86C227.094 197.84 227.174 197.81 227.294 197.77C227.434 197.71 227.584 197.62 227.744 197.5C227.924 197.46 228.174 197.38 228.494 197.26C228.814 197.12 229.084 197.05 229.304 197.05C229.604 196.95 229.844 196.88 230.024 196.84C230.224 196.78 230.424 196.75 230.624 196.75L231.494 196.81C232.494 197.07 233.114 197.59 233.354 198.37L233.564 199.66L232.304 200.59C232.064 200.67 231.764 200.71 231.404 200.71C231.164 200.71 230.954 200.7 230.774 200.68C230.594 200.66 230.474 200.64 230.414 200.62C230.314 200.62 230.264 200.57 230.264 200.47C230.264 200.41 230.284 200.36 230.324 200.32C230.384 200.28 230.444 200.26 230.504 200.26C230.564 200.2 230.664 200.1 230.804 199.96C230.944 199.8 231.084 199.65 231.224 199.51C231.364 199.29 231.434 199.11 231.434 198.97C231.434 198.87 231.394 198.81 231.314 198.79C231.254 198.75 231.134 198.73 230.954 198.73L230.174 198.79C229.454 198.83 228.774 199.02 228.134 199.36C227.494 199.68 226.964 200.15 226.544 200.77C226.064 201.19 225.704 201.63 225.464 202.09C225.224 202.55 225.104 202.96 225.104 203.32C225.204 203.8 225.374 204.26 225.614 204.7L227.324 207.07C227.784 207.65 228.014 207.98 228.014 208.06V208.21C228.054 208.21 228.214 208.48 228.494 209.02C228.774 209.56 228.914 209.88 228.914 209.98L229.184 210.61C229.284 210.71 229.384 211.13 229.484 211.87C229.584 212.61 229.634 213.18 229.634 213.58C229.614 213.92 229.484 214.3 229.244 214.72C229.024 215.14 228.744 215.53 228.404 215.89C227.984 216.33 227.374 216.82 226.574 217.36C225.774 217.9 225.084 218.24 224.504 218.38C224.164 218.5 223.714 218.6 223.154 218.68C222.614 218.76 222.074 218.8 221.534 218.8C220.634 218.8 220.094 218.71 219.914 218.53ZM239.849 217.81C239.229 217.67 238.609 217.42 237.989 217.06C237.389 216.72 237.049 216.41 236.969 216.13C236.969 216.03 236.929 215.95 236.849 215.89C236.769 215.81 236.679 215.77 236.579 215.77V215.53V215.32C236.579 215.18 236.539 215.09 236.459 215.05C236.339 214.81 236.279 214.46 236.279 214C236.279 213.4 236.359 212.69 236.519 211.87C236.699 211.03 236.909 210.27 237.149 209.59C237.149 209.45 237.179 209.27 237.239 209.05C237.319 208.83 237.359 208.69 237.359 208.63C237.519 208.17 237.839 207.44 238.319 206.44C238.799 205.44 239.199 204.74 239.519 204.34C239.519 204.28 239.589 204.15 239.729 203.95C239.889 203.73 239.999 203.51 240.059 203.29C240.379 202.97 240.809 202.35 241.349 201.43C242.049 200.85 242.339 200.33 242.219 199.87C242.239 199.55 242.289 199.32 242.369 199.18C242.449 199.02 242.599 198.89 242.819 198.79C243.059 198.67 243.449 198.55 243.989 198.43C244.609 198.19 245.249 198.03 245.909 197.95C246.569 197.85 247.439 197.78 248.519 197.74C248.779 197.68 248.999 197.64 249.179 197.62C249.379 197.6 249.499 197.59 249.539 197.59C249.619 197.51 249.979 197.61 250.619 197.89C251.279 198.15 251.589 198.33 251.549 198.43C251.529 198.61 251.249 198.79 250.709 198.97C250.169 199.15 249.559 199.28 248.879 199.36C247.619 199.5 246.649 199.68 245.969 199.9C245.309 200.12 244.739 200.46 244.259 200.92C243.799 201.36 243.269 202.05 242.669 202.99C242.209 203.71 241.879 204.25 241.679 204.61C241.499 204.97 241.409 205.23 241.409 205.39C241.409 205.49 241.449 205.56 241.529 205.6C241.629 205.64 241.769 205.66 241.949 205.66C242.129 205.66 242.339 205.64 242.579 205.6C242.819 205.54 242.999 205.51 243.119 205.51C243.259 205.47 243.579 205.39 244.079 205.27C244.579 205.15 245.059 205.06 245.519 205L246.779 204.73C247.239 204.63 247.599 204.58 247.859 204.58C248.539 204.58 248.879 204.74 248.879 205.06C248.879 205.22 248.769 205.4 248.549 205.6C248.329 205.8 248.029 205.98 247.649 206.14C247.289 206.28 246.879 206.42 246.419 206.56C245.959 206.7 245.669 206.77 245.549 206.77C245.509 206.79 245.409 206.81 245.249 206.83C245.109 206.85 244.929 206.86 244.709 206.86L243.359 207.04L242.369 207.16C242.169 207.22 241.769 207.33 241.169 207.49C240.569 207.63 240.169 207.8 239.969 208C239.769 208.2 239.589 208.5 239.429 208.9C239.149 209.56 238.899 210.46 238.679 211.6C238.459 212.74 238.349 213.7 238.349 214.48C238.349 215.04 238.419 215.39 238.559 215.53C238.699 215.69 238.929 215.82 239.249 215.92C239.569 216 239.939 216.04 240.359 216.04C240.919 216.04 241.489 215.97 242.069 215.83C242.669 215.69 243.169 215.49 243.569 215.23C243.949 214.93 244.369 214.7 244.829 214.54C245.049 214.38 245.209 214.3 245.309 214.3C245.409 214.3 245.549 214.36 245.729 214.48C245.909 214.6 246.039 214.69 246.119 214.75C246.319 215.05 246.419 215.27 246.419 215.41C246.419 215.65 246.259 215.87 245.939 216.07C245.619 216.27 245.009 216.56 244.109 216.94C243.169 217.26 242.419 217.49 241.859 217.63C241.299 217.77 240.789 217.84 240.329 217.84L239.849 217.81Z" fill="white"/>
<path d="M204.471 89.8624C205.752 94.0702 205.239 106.969 192.94 124.904C192.504 125.74 193.205 126.024 194.975 126.427C199.798 120.551 209.037 105.011 207.41 89.8624C206.122 88.6505 205.452 88.4248 204.471 89.8624Z" fill="white"/>
<path d="M189.775 115.327C189.474 117.939 186.927 124.686 179.15 130.78C178.999 131.433 179.708 133.957 180.732 132.739C182.347 130.819 192.075 122.52 191.81 116.198C191.694 113.438 189.706 116.169 189.775 115.327Z" fill="white"/>
<path d="M83.0655 122.292C85.1002 112.498 91.6565 92.1259 101.604 88.9918C102.207 89.0644 103.322 89.4706 102.961 90.5153C102.508 91.8212 92.3347 94.8683 86.6827 122.292C85.2698 123.947 84.4785 123.837 83.0655 122.292Z" fill="white"/>
<path d="M94.5955 110.321C93.3898 113.151 91.1591 119.506 91.8826 122.292C92.184 122.727 93.1486 123.337 94.5955 122.292C94.1434 119.825 93.8269 114.195 96.1781 111.409C95.9477 110.09 95.6478 109.745 94.5955 110.321Z" fill="white"/>
<path fill-rule="evenodd" clip-rule="evenodd" d="M71.3091 147.856C76.0568 156.898 76.5088 160.044 84.1957 165.921C91.8826 171.797 100.7 174.409 100.7 175.062C100.7 175.715 106.578 177.238 108.386 177.674C110.195 178.109 119.916 179.415 127.377 181.156C128.884 181.156 132.577 181.025 135.29 180.503C138.681 179.85 152.02 177.456 162.193 172.668C170.332 168.837 185.63 160.558 192.262 156.898C195.955 153.917 204.425 146.238 208.766 139.368C213.107 132.498 217.658 122.576 219.392 118.474C220.899 116.732 223.371 110.377 221.2 98.8854C219.03 87.3936 214.117 79.152 211.931 76.4677C207.862 72.1148 196.784 62.4512 185.027 58.6206C183.671 57.0971 179.376 54.1371 173.045 54.4854C169.353 54.3403 160.159 54.3112 152.924 55.3559C143.881 56.6618 139.811 55.5924 127.151 60.4801C123.835 62.4057 115.937 66.6252 110.873 68.0977C104.543 69.9383 91.4303 78.2277 85.5522 87.2506C82.9899 89.9018 77.3681 96.0511 75.3786 99.4389C72.8917 103.674 72.4395 107.828 71.5352 111.409C70.8117 114.275 69.3782 120.78 68.7519 123.675C68.0379 129.144 67.6304 140.85 71.3091 147.856ZM107.256 129.039C91.8826 136.526 81.2568 137.527 77.8656 137.092C76.3524 136.944 73.6053 130.741 73.5701 123.162C73.5442 117.588 76.3584 109.668 77.8656 106.404C85.7784 90.5154 84.4219 97.0448 89.8479 89.8624C95.2738 82.6801 104.769 76.5859 106.352 75.933C107.618 75.4106 117.731 70.9271 122.629 68.7506C137.551 60.0448 143.429 62.2212 149.759 60.4801C156.089 58.7389 167.167 59.8271 173.045 59.8271C177.748 59.8271 178.471 61.4232 178.245 62.2212C164.68 64.833 167.393 66.3565 162.872 67.4448C159.254 68.3153 150.814 77.384 147.046 81.8095C144.484 84.2036 138.5 91.0812 135.064 99.4389C130.768 109.886 125.569 114.021 123.76 116.415C122.313 118.331 112.154 125.629 107.256 129.039ZM86.6827 149.062L82.3873 142.533C81.2894 140.459 86.6629 137.693 89.8479 137.962C90.2082 137.993 96.6303 137.237 100.022 137.092C104.317 137.019 115.214 135.829 124.438 131.651C133.662 127.472 139.586 122.219 141.394 120.115C148.403 111.192 152.246 102.268 152.246 101.833C152.246 101.398 153.15 95.0859 156.768 87.2506C159.661 80.9824 165.208 75.6428 167.62 73.7565C168.373 72.3781 172.367 69.3165 182.315 68.0977C192.262 66.8789 197.914 70.0565 199.497 71.7977C202.888 74.1918 210.53 80.6342 213.966 87.2506C218.261 95.5212 215.096 102.704 215.322 104.009C215.503 105.054 213.137 110.249 211.931 112.715C211.027 115.98 207.5 124.338 200.627 131.651C193.754 138.964 179.376 146.306 173.045 149.062C171.614 149.933 165.992 152.719 154.959 156.898C141.168 162.121 133.934 159.945 133.481 160.815C133.029 161.686 124.212 159.945 117.656 159.945C112.411 159.945 104.92 157.913 101.83 156.898C100.775 156.172 98.3937 154.547 97.3086 153.851C96.2234 153.154 89.7725 150.368 86.6827 149.062Z" fill="white"/>
<path d="M68.8222 123.162C68.7985 123.326 68.775 123.497 68.7519 123.675M68.7519 123.675C68.0379 129.144 67.6304 140.85 71.3091 147.856C76.0568 156.898 76.5088 160.044 84.1957 165.921C91.8826 171.797 100.7 174.409 100.7 175.062C100.7 175.715 106.578 177.238 108.386 177.674C110.195 178.109 119.916 179.415 127.377 181.156C128.884 181.156 132.577 181.025 135.29 180.503C138.681 179.85 152.02 177.456 162.193 172.668C170.332 168.837 185.63 160.558 192.262 156.898C195.955 153.917 204.425 146.238 208.766 139.368C213.107 132.498 217.658 122.576 219.392 118.474C220.899 116.732 223.371 110.377 221.2 98.8854C219.03 87.3936 214.117 79.152 211.931 76.4677C207.862 72.1148 196.784 62.4512 185.027 58.6206C183.671 57.0971 179.376 54.1371 173.045 54.4854C169.353 54.3403 160.159 54.3112 152.924 55.3559C143.881 56.6618 139.811 55.5924 127.151 60.4801C123.835 62.4057 115.937 66.6252 110.873 68.0977C104.543 69.9383 91.4303 78.2277 85.5522 87.2506C82.9899 89.9018 77.3681 96.0511 75.3786 99.4389C72.8917 103.674 72.4395 107.828 71.5352 111.409C70.8117 114.275 69.3782 120.78 68.7519 123.675ZM83.0655 122.292C85.1002 112.498 91.6565 92.1259 101.604 88.9918C102.207 89.0643 103.322 89.4706 102.961 90.5153C102.508 91.8212 92.3347 94.8683 86.6827 122.292C85.2698 123.947 84.4785 123.837 83.0655 122.292ZM94.5955 110.321C93.3898 113.151 91.1591 119.506 91.8826 122.292C92.184 122.727 93.1486 123.337 94.5955 122.292C94.1434 119.825 93.8269 114.195 96.1781 111.409C95.9477 110.09 95.6478 109.745 94.5955 110.321ZM189.775 115.327C189.474 117.939 186.927 124.686 179.15 130.78C178.999 131.433 179.708 133.957 180.732 132.739C182.347 130.819 192.075 122.52 191.81 116.198C191.694 113.438 189.706 116.169 189.775 115.327ZM204.471 89.8624C205.752 94.0702 205.239 106.969 192.94 124.904C192.504 125.74 193.205 126.024 194.975 126.427C199.798 120.551 209.037 105.011 207.41 89.8624C206.122 88.6505 205.452 88.4248 204.471 89.8624ZM77.8656 137.092C81.2568 137.527 91.8826 136.526 107.256 129.039C112.154 125.629 122.313 118.331 123.76 116.415C125.569 114.021 130.768 109.886 135.064 99.4389C138.5 91.0812 144.484 84.2036 147.046 81.8095C150.814 77.384 159.254 68.3153 162.872 67.4448C167.393 66.3565 164.68 64.833 178.245 62.2212C178.471 61.4232 177.748 59.8271 173.045 59.8271C167.167 59.8271 156.089 58.7389 149.759 60.4801C143.429 62.2212 137.551 60.0448 122.629 68.7506C117.731 70.9271 107.618 75.4106 106.352 75.933C104.769 76.5859 95.2738 82.6801 89.8479 89.8624C84.4219 97.0448 85.7784 90.5154 77.8656 106.404C76.3584 109.668 73.5442 117.588 73.5701 123.162C73.6053 130.741 76.3524 136.944 77.8656 137.092ZM82.3873 142.533L86.6827 149.062C89.7725 150.368 96.2234 153.154 97.3086 153.851C98.3937 154.547 100.775 156.172 101.83 156.898C104.92 157.913 112.411 159.945 117.656 159.945C124.212 159.945 133.029 161.686 133.481 160.815C133.934 159.945 141.168 162.121 154.959 156.898C165.992 152.719 171.614 149.933 173.045 149.062C179.376 146.306 193.754 138.964 200.627 131.651C207.5 124.338 211.027 115.98 211.931 112.715C213.137 110.249 215.503 105.054 215.322 104.009C215.096 102.704 218.261 95.5212 213.966 87.2506C210.53 80.6342 202.888 74.1918 199.497 71.7977C197.914 70.0565 192.262 66.8789 182.315 68.0977C172.367 69.3165 168.373 72.3781 167.62 73.7565C165.208 75.6428 159.661 80.9824 156.768 87.2506C153.15 95.0859 152.246 101.398 152.246 101.833C152.246 102.268 148.403 111.192 141.394 120.115C139.586 122.219 133.662 127.472 124.438 131.651C115.214 135.829 104.317 137.019 100.022 137.092C96.6303 137.237 90.2082 137.993 89.8479 137.962C86.6629 137.693 81.2894 140.459 82.3873 142.533Z" stroke="white"/>
<ellipse cx="3.3912" cy="95.7647" rx="3.3912" ry="3.04706" fill="white"/>
<ellipse cx="25.9992" cy="97.0706" rx="3.3912" ry="3.04706" fill="white"/>
<ellipse cx="48.6073" cy="98.8118" rx="3.39121" ry="3.04706" fill="white"/>
<ellipse cx="91.1103" cy="50.4941" rx="3.3912" ry="3.04706" fill="white"/>
<ellipse cx="150.343" cy="36.1294" rx="3.39121" ry="3.04706" fill="white"/>
<ellipse cx="225.402" cy="53.5412" rx="3.3912" ry="3.04706" fill="white"/>
<ellipse cx="246.201" cy="99.6823" rx="3.3912" ry="3.04706" fill="white"/>
<ellipse cx="240.775" cy="143.212" rx="3.3912" ry="3.04706" fill="white"/>
<ellipse cx="259.314" cy="154.965" rx="3.39121" ry="3.04706" fill="white"/>
<ellipse cx="289.609" cy="95.3294" rx="3.3912" ry="3.04705" fill="white"/>
<ellipse cx="266.096" cy="98.3765" rx="3.3912" ry="3.04706" fill="white"/>
<ellipse cx="235.802" cy="43.9647" rx="3.3912" ry="3.04706" fill="white"/>
<ellipse cx="152.152" cy="17.847" rx="3.3912" ry="3.04706" fill="white"/>
<ellipse cx="152.152" cy="3.04706" rx="3.3912" ry="3.04706" fill="white"/>
<ellipse cx="81.615" cy="39.1765" rx="3.3912" ry="3.04706" fill="white"/>
<ellipse cx="42.277" cy="136.247" rx="3.3912" ry="3.04706" fill="white"/>
<ellipse cx="22.3819" cy="148" rx="3.3912" ry="3.04706" fill="white"/>
</svg>
