<svg width="56" height="48" viewBox="0 0 56 48" fill="none" xmlns="http://www.w3.org/2000/svg">
<path d="M39.0797 19.4297C39.3246 20.3395 39.2266 23.1285 36.876 27.0062C36.7925 27.187 36.9265 27.2484 37.2649 27.3356C38.1867 26.065 39.9525 22.705 39.6414 19.4297C39.3953 19.1677 39.2674 19.1189 39.0797 19.4297Z" fill="black"/>
<path d="M36.2711 24.9356C36.2134 25.5003 35.7266 26.9591 34.2402 28.2768C34.2114 28.4179 34.3468 28.9636 34.5426 28.7003C34.8514 28.2852 36.7107 26.4908 36.6599 25.1238C36.6378 24.5272 36.2578 25.1176 36.2711 24.9356Z" fill="black"/>
<path d="M15.876 26.4415C16.2649 24.3238 17.518 19.9191 19.4192 19.2415C19.5344 19.2572 19.7476 19.345 19.6785 19.5709C19.592 19.8532 17.6476 20.5121 16.5673 26.4415C16.2973 26.7993 16.1461 26.7755 15.876 26.4415Z" fill="black"/>
<path d="M18.0797 23.8532C17.8492 24.465 17.4229 25.8391 17.5612 26.4415C17.6188 26.5356 17.8031 26.6674 18.0797 26.4415C17.9933 25.9081 17.9328 24.6909 18.3822 24.0885C18.3381 23.8031 18.2808 23.7287 18.0797 23.8532Z" fill="black"/>
<path fill-rule="evenodd" clip-rule="evenodd" d="M13.629 31.9689C14.5364 33.9238 14.6228 34.6041 16.092 35.8747C17.5612 37.1453 19.2463 37.71 19.2463 37.8512C19.2463 37.9924 20.3698 38.3218 20.7155 38.4159C21.0611 38.51 22.9192 38.7924 24.3451 39.1689C24.6332 39.1689 25.3389 39.1406 25.8574 39.0277C26.5056 38.8865 29.055 38.3689 30.9994 37.3336C32.555 36.5053 35.4788 34.7153 36.7463 33.9238C37.4521 33.2793 39.071 31.619 39.9006 30.1336C40.7303 28.6481 41.6002 26.5029 41.9315 25.6159C42.2196 25.2394 42.692 23.8653 42.2772 21.3806C41.8624 18.8959 40.9233 17.114 40.5056 16.5336C39.7278 15.5924 37.6105 13.503 35.3636 12.6747C35.1044 12.3453 34.2834 11.7053 33.0735 11.7806C32.3677 11.7493 30.6105 11.743 29.2278 11.9689C27.4994 12.2512 26.7216 12.02 24.3019 13.0768C23.6681 13.4931 22.1587 14.4055 21.1908 14.7238C19.9809 15.1218 17.4747 16.9141 16.3513 18.865C15.8615 19.4382 14.7871 20.7678 14.4068 21.5003C13.9315 22.4159 13.8451 23.3141 13.6722 24.0885C13.534 24.7081 13.26 26.1147 13.1403 26.7405C13.0038 27.9231 12.9259 30.454 13.629 31.9689ZM20.4994 27.9003C17.5612 29.5191 15.5303 29.7356 14.8822 29.6415C14.593 29.6095 14.0679 28.2682 14.0612 26.6297C14.0562 25.4244 14.5941 23.7121 14.8822 23.0062C16.3945 19.5709 16.1352 20.9827 17.1723 19.4297C18.2093 17.8768 20.0241 16.5591 20.3266 16.418C20.5686 16.305 22.5015 15.3356 23.4377 14.865C26.2896 12.9827 27.413 13.4532 28.6229 13.0768C29.8328 12.7003 31.9501 12.9356 33.0735 12.9356C33.9723 12.9356 34.1105 13.2807 34.0673 13.4532C31.4747 14.018 31.9933 14.3474 31.1291 14.5827C30.4377 14.7709 28.8245 16.7317 28.1044 17.6885C27.6147 18.2062 26.471 19.6932 25.8143 21.5003C24.9933 23.7591 23.9994 24.6532 23.6538 25.1709C23.3772 25.585 21.4357 27.163 20.4994 27.9003ZM16.5673 32.2297L15.7464 30.8179C15.5365 30.3695 16.5636 29.7715 17.1723 29.8297C17.2411 29.8363 18.4686 29.6729 19.1167 29.6415C19.9377 29.6258 22.0204 29.3685 23.7834 28.465C25.5464 27.5615 26.6785 26.4258 27.0241 25.9709C28.3636 24.0415 29.0982 22.1121 29.0982 22.018C29.0982 21.9238 29.2711 20.5591 29.9624 18.865C30.5155 17.5097 31.5756 16.3552 32.0365 15.9474C32.1805 15.6493 32.9439 14.9874 34.8451 14.7238C36.7464 14.4603 37.8266 15.1474 38.1291 15.5238C38.7772 16.0415 40.2377 17.4344 40.8945 18.865C41.7155 20.6532 41.1106 22.2062 41.1538 22.4885C41.1883 22.7144 40.7361 23.8376 40.5056 24.3709C40.3328 25.0768 39.6587 26.8838 38.3451 28.465C37.0315 30.0462 34.2834 31.6336 33.0735 32.2297C32.7999 32.4179 31.7254 33.0203 29.6167 33.9238C26.9809 35.0532 25.5982 34.5827 25.5118 34.7709C25.4254 34.9591 23.7402 34.5827 22.4871 34.5827C21.4846 34.5827 20.0529 34.1434 19.4624 33.9238C19.2608 33.767 18.8056 33.4156 18.5982 33.265C18.3908 33.1144 17.1579 32.5121 16.5673 32.2297Z" fill="black"/>
<path d="M13.1537 26.6297C13.1492 26.6652 13.1447 26.7021 13.1403 26.7405M13.1403 26.7405C13.0038 27.9231 12.9259 30.454 13.629 31.9689C14.5364 33.9238 14.6228 34.6041 16.092 35.8747C17.5612 37.1453 19.2463 37.71 19.2463 37.8512C19.2463 37.9924 20.3698 38.3218 20.7155 38.4159C21.0611 38.51 22.9192 38.7924 24.3451 39.1689C24.6332 39.1689 25.3389 39.1406 25.8574 39.0277C26.5056 38.8865 29.055 38.3689 30.9994 37.3336C32.555 36.5053 35.4788 34.7153 36.7463 33.9238C37.4521 33.2793 39.071 31.619 39.9006 30.1336C40.7303 28.6481 41.6002 26.5029 41.9315 25.6159C42.2196 25.2394 42.692 23.8653 42.2772 21.3806C41.8624 18.8959 40.9233 17.114 40.5056 16.5336C39.7278 15.5924 37.6105 13.503 35.3636 12.6747C35.1044 12.3453 34.2834 11.7053 33.0735 11.7806C32.3677 11.7493 30.6105 11.743 29.2278 11.9689C27.4994 12.2512 26.7216 12.02 24.3019 13.0768C23.6681 13.4931 22.1587 14.4055 21.1908 14.7238C19.9809 15.1218 17.4747 16.9141 16.3513 18.865C15.8615 19.4382 14.7871 20.7678 14.4068 21.5003C13.9315 22.4159 13.8451 23.3141 13.6722 24.0885C13.534 24.7081 13.26 26.1147 13.1403 26.7405ZM15.876 26.4415C16.2649 24.3238 17.518 19.9191 19.4192 19.2415C19.5344 19.2572 19.7476 19.345 19.6785 19.5709C19.592 19.8532 17.6476 20.5121 16.5673 26.4415C16.2973 26.7993 16.1461 26.7755 15.876 26.4415ZM18.0797 23.8532C17.8492 24.465 17.4229 25.8391 17.5612 26.4415C17.6188 26.5356 17.8031 26.6674 18.0797 26.4415C17.9933 25.9081 17.9328 24.6909 18.3822 24.0885C18.3381 23.8031 18.2808 23.7287 18.0797 23.8532ZM36.2711 24.9356C36.2134 25.5003 35.7266 26.9591 34.2402 28.2768C34.2114 28.4179 34.3468 28.9636 34.5426 28.7003C34.8514 28.2852 36.7107 26.4908 36.6599 25.1238C36.6378 24.5272 36.2578 25.1176 36.2711 24.9356ZM39.0797 19.4297C39.3245 20.3395 39.2266 23.1285 36.876 27.0062C36.7925 27.187 36.9265 27.2484 37.2649 27.3356C38.1867 26.065 39.9525 22.705 39.6414 19.4297C39.3953 19.1677 39.2674 19.1189 39.0797 19.4297ZM14.8822 29.6415C15.5303 29.7356 17.5612 29.5191 20.4994 27.9003C21.4357 27.163 23.3772 25.585 23.6538 25.1709C23.9994 24.6532 24.9933 23.7591 25.8143 21.5003C26.471 19.6932 27.6147 18.2062 28.1044 17.6885C28.8245 16.7317 30.4377 14.7709 31.1291 14.5827C31.9933 14.3474 31.4747 14.018 34.0673 13.4532C34.1106 13.2807 33.9723 12.9356 33.0735 12.9356C31.9501 12.9356 29.8328 12.7003 28.6229 13.0768C27.413 13.4532 26.2896 12.9827 23.4377 14.865C22.5015 15.3356 20.5686 16.305 20.3266 16.418C20.0241 16.5591 18.2093 17.8768 17.1723 19.4297C16.1352 20.9827 16.3945 19.5709 14.8822 23.0062C14.5941 23.7121 14.0562 25.4244 14.0612 26.6297C14.0679 28.2682 14.593 29.6095 14.8822 29.6415ZM15.7464 30.8179L16.5673 32.2297C17.1579 32.5121 18.3908 33.1144 18.5982 33.265C18.8056 33.4156 19.2608 33.767 19.4624 33.9238C20.0529 34.1434 21.4846 34.5827 22.4871 34.5827C23.7402 34.5827 25.4254 34.9591 25.5118 34.7709C25.5982 34.5827 26.9809 35.0532 29.6167 33.9238C31.7254 33.0203 32.7999 32.4179 33.0735 32.2297C34.2834 31.6336 37.0315 30.0462 38.3451 28.465C39.6587 26.8838 40.3328 25.0768 40.5056 24.3709C40.7361 23.8376 41.1883 22.7144 41.1538 22.4885C41.1106 22.2062 41.7155 20.6532 40.8945 18.865C40.2377 17.4344 38.7772 16.0415 38.1291 15.5238C37.8266 15.1474 36.7464 14.4603 34.8451 14.7238C32.9439 14.9874 32.1805 15.6493 32.0365 15.9474C31.5756 16.3552 30.5155 17.5097 29.9624 18.865C29.2711 20.5591 29.0982 21.9238 29.0982 22.018C29.0982 22.1121 28.3636 24.0415 27.0241 25.9709C26.6785 26.4258 25.5464 27.5615 23.7834 28.465C22.0204 29.3685 19.9377 29.6258 19.1167 29.6415C18.4686 29.6729 17.2412 29.8363 17.1723 29.8297C16.5636 29.7715 15.5365 30.3695 15.7464 30.8179Z" stroke="black"/>
<ellipse cx="0.648148" cy="20.7059" rx="0.648148" ry="0.658824" fill="black"/>
<ellipse cx="4.96913" cy="20.9882" rx="0.648148" ry="0.658823" fill="black"/>
<ellipse cx="9.29012" cy="21.3647" rx="0.648149" ry="0.658823" fill="black"/>
<ellipse cx="17.4136" cy="10.9176" rx="0.648148" ry="0.658823" fill="black"/>
<ellipse cx="28.7346" cy="7.81178" rx="0.648143" ry="0.658823" fill="black"/>
<ellipse cx="43.0803" cy="11.5764" rx="0.648148" ry="0.658825" fill="black"/>
<ellipse cx="47.0556" cy="21.553" rx="0.648148" ry="0.658823" fill="black"/>
<ellipse cx="46.0185" cy="30.9647" rx="0.648148" ry="0.658823" fill="black"/>
<ellipse cx="49.5617" cy="33.5059" rx="0.648157" ry="0.658823" fill="black"/>
<ellipse cx="55.3518" cy="20.6118" rx="0.648149" ry="0.658823" fill="black"/>
<ellipse cx="50.858" cy="21.2706" rx="0.648148" ry="0.658824" fill="black"/>
<ellipse cx="45.0679" cy="9.50587" rx="0.648148" ry="0.658823" fill="black"/>
<ellipse cx="29.0803" cy="3.85884" rx="0.648148" ry="0.658824" fill="black"/>
<ellipse cx="29.0803" cy="0.658823" rx="0.648148" ry="0.658823" fill="black"/>
<ellipse cx="15.5988" cy="8.47059" rx="0.648148" ry="0.658823" fill="black"/>
<ellipse cx="8.08028" cy="29.4588" rx="0.648147" ry="0.658823" fill="black"/>
<ellipse cx="4.27779" cy="32" rx="0.648148" ry="0.658823" fill="black"/>
</svg>
